<svg width="25" height="17" viewBox="0 0 25 17" fill="none" xmlns="http://www.w3.org/2000/svg"><path fill-rule="evenodd" clip-rule="evenodd" d="M4.33431 2.99976C4.15021 2.99976 4.00098 3.14899 4.00098 3.33309V7.33309C4.00098 7.51718 4.15021 7.66642 4.33431 7.66642H5.00098C5.18507 7.66642 5.33431 7.51718 5.33431 7.33309V3.33309C5.33431 3.14899 5.18507 2.99976 5.00098 2.99976H4.33431ZM4.33431 8.99976C4.15021 8.99976 4.00098 9.14899 4.00098 9.33309V13.3331C4.00098 13.5172 4.15021 13.6664 4.33431 13.6664H5.00098C5.18507 13.6664 5.33431 13.5172 5.33431 13.3331V9.33309C5.33431 9.14899 5.18507 8.99976 5.00098 8.99976H4.33431ZM8.00098 3.33309C8.00098 3.14899 8.15022 2.99976 8.33431 2.99976H9.00098C9.18507 2.99976 9.33431 3.14899 9.33431 3.33309V7.33309C9.33431 7.51718 9.18507 7.66642 9.00098 7.66642H8.33431C8.15022 7.66642 8.00098 7.51718 8.00098 7.33309V3.33309ZM8.33431 8.99976C8.15022 8.99976 8.00098 9.14899 8.00098 9.33309V13.3331C8.00098 13.5172 8.15022 13.6664 8.33431 13.6664H9.00098C9.18507 13.6664 9.33431 13.5172 9.33431 13.3331V9.33309C9.33431 9.14899 9.18507 8.99976 9.00098 8.99976H8.33431ZM12.001 3.33309C12.001 3.14899 12.1502 2.99976 12.3343 2.99976H13.001C13.1851 2.99976 13.3343 3.14899 13.3343 3.33309V7.33309C13.3343 7.51718 13.1851 7.66642 13.001 7.66642H12.3343C12.1502 7.66642 12.001 7.51718 12.001 7.33309V3.33309ZM12.3343 8.99976C12.1502 8.99976 12.001 9.14899 12.001 9.33309V13.3331C12.001 13.5172 12.1502 13.6664 12.3343 13.6664H13.001C13.1851 13.6664 13.3343 13.5172 13.3343 13.3331V9.33309C13.3343 9.14899 13.1851 8.99976 13.001 8.99976H12.3343Z" fill="#161823"></path><path fill-rule="evenodd" clip-rule="evenodd" d="M20.9199 10.2047C20.7869 10.3599 20.5468 10.3599 20.4138 10.2047L18.1385 7.55026C17.9532 7.33404 18.1068 7 18.3916 7L22.9421 7C23.2269 7 23.3805 7.33404 23.1952 7.55026L20.9199 10.2047Z" fill="#161823"></path></svg>