<svg fill="currentColor" data-tt="Header_UserMenu_IconLogoutFill" viewBox="0 0 48 48" xmlns="http://www.w3.org/2000/svg" width="1em" height="1em"><path d="M34.8 10h-5.6c-2.06 0-3.24 0-4.1.08-.35.02-.54.06-.63.07a1 1 0 0 0-.32.32c-.01.09-.05.28-.07.62A39.8 39.8 0 0 0 24 14a1 1 0 0 1-1 1h-4a1 1 0 0 1-1-1c0-3.14.08-4.84.76-6.18a7 7 0 0 1 3.06-3.06C23.32 4 25.28 4 29.2 4h5.6c3.92 0 5.88 0 7.38.76a7 7 0 0 1 3.06 3.06c.76 1.5.76 3.46.76 7.38v17.6c0 3.92 0 5.88-.76 7.38a7 7 0 0 1-3.06 3.06c-1.5.76-3.46.76-7.38.76h-5.6c-3.92 0-5.88 0-7.38-.76a7 7 0 0 1-3.06-3.06c-.68-1.34-.75-3.04-.76-6.18a1 1 0 0 1 1-1h4a1 1 0 0 1 1 1c0 1.35.02 2.23.08 2.9.02.35.06.54.07.63a1 1 0 0 0 .32.32c.09.01.28.05.62.07.87.08 2.05.08 4.11.08h5.6c2.06 0 3.24 0 4.1-.08.35-.02.54-.06.63-.07a1 1 0 0 0 .32-.32c.01-.09.05-.28.07-.62.08-.87.08-2.05.08-4.11V15.2c0-2.06 0-3.24-.08-4.1a5.42 5.42 0 0 0-.07-.63 1 1 0 0 0-.32-.32 5.42 5.42 0 0 0-.62-.07C38.04 10 36.86 10 34.8 10Z"></path><path d="M12.59 12.59a1 1 0 0 0-1.42 0l-9.3 9.29a3 3 0 0 0 0 4.24l9.3 9.3a1 1 0 0 0 1.42 0l2.79-2.8a1 1 0 0 0-.04-1.45L10.74 27H31a1 1 0 0 0 1-1v-4a1 1 0 0 0-1-1H10.74l4.6-4.17a1 1 0 0 0 .04-1.45l-2.8-2.8Z"></path></svg>