<svg fill="currentColor" data-tt="Sidebar_index_IconLinesHorizontalDecreaseAlt" viewBox="0 0 48 48" xmlns="http://www.w3.org/2000/svg" width="1em" height="1em"><path d="M6 10a1 1 0 0 0-1 1v2a1 1 0 0 0 1 1h4a1 1 0 0 0 1-1v-2a1 1 0 0 0-1-1H6Zm0 12a1 1 0 0 0-1 1v2a1 1 0 0 0 1 1h4a1 1 0 0 0 1-1v-2a1 1 0 0 0-1-1H6ZM5 35a1 1 0 0 1 1-1h4a1 1 0 0 1 1 1v2a1 1 0 0 1-1 1H6a1 1 0 0 1-1-1v-2Zm11-25a1 1 0 0 0-1 1v2a1 1 0 0 0 1 1h26a1 1 0 0 0 1-1v-2a1 1 0 0 0-1-1H16Zm0 12a1 1 0 0 0-1 1v2a1 1 0 0 0 1 1h26a1 1 0 0 0 1-1v-2a1 1 0 0 0-1-1H16Zm-1 13a1 1 0 0 1 1-1h26a1 1 0 0 1 1 1v2a1 1 0 0 1-1 1H16a1 1 0 0 1-1-1v-2Z"></path></svg>