<svg fill="currentColor" viewBox="0 0 48 48" xmlns="http://www.w3.org/2000/svg" width="1em" height="1em"><path d="M24 26c-4.3 0-8.1-1.33-10.8-3.4-2.38-1.81-3.83-4.13-4.14-6.6-.07-.55-.5-1-1.06-1H6c-.55 0-1 .45-.96 1 .32 3.92 2.54 7.34 5.72 9.78.46.35.94.68 1.45 1L9.5 31.46a1 1 0 0 0 .37 1.37l1.73 1a1 1 0 0 0 1.36-.37l2.84-4.92c1.92.73 4.01 1.2 6.2 1.38V35a1 1 0 0 0 1 1h2a1 1 0 0 0 1-1v-5.08a22.8 22.8 0 0 0 6.89-1.65l2.61 4.52a1 1 0 0 0 1.37.37l1.73-1a1 1 0 0 0 .36-1.37l-2.55-4.42c.28-.19.56-.38.83-.59 3.18-2.44 5.4-5.86 5.72-9.78.04-.55-.4-1-.96-1h-2c-.55 0-1 .45-1.06 1-.31 2.47-1.76 4.79-4.13 6.6A17.88 17.88 0 0 1 24 26Z"></path></svg>