<svg width="17" height="16" viewBox="0 0 17 16" fill="none" xmlns="http://www.w3.org/2000/svg"><path d="M3.57085 3.51877C4.98336 2.11707 7.21431 2.1382 8.66764 3.7288C10.121 2.1382 12.3519 2.11707 13.7644 3.51877C14.7248 4.47182 15.0386 5.82425 14.7059 7.0383L13.833 6.16544C13.8551 5.46719 13.5974 4.76187 13.06 4.22859C12.0421 3.21843 10.4211 3.21985 9.33928 4.47851L9.32635 4.49355L9.01984 4.79772C8.82489 4.99117 8.5104 4.99117 8.31545 4.79772L8.00893 4.49355L7.99601 4.47851C6.91422 3.21985 5.29318 3.21843 4.27524 4.22859C3.24289 5.25304 3.24289 6.91241 4.27524 7.93686L8.66764 12.2957L9.31792 11.6504L10.025 12.3575L9.01984 13.355C8.82489 13.5484 8.5104 13.5484 8.31545 13.355L3.57085 8.64668C2.14435 7.23109 2.14435 4.93436 3.57085 3.51877ZM14.6192 10.6183C14.8404 10.4071 15.0233 10.1989 15.16 10.0231C15.2444 9.91446 15.3153 9.81288 15.3679 9.72595C15.3937 9.68321 15.4196 9.63665 15.4408 9.58986L15.442 9.5873C15.4542 9.56069 15.501 9.45827 15.501 9.33342C15.501 9.23331 15.4716 9.14831 15.4619 9.12048L15.4618 9.12002C15.4463 9.07529 15.4268 9.02965 15.4061 8.98587C15.3642 8.89732 15.3065 8.79335 15.2346 8.68108C15.0906 8.45613 14.8786 8.17981 14.5969 7.90992C14.0334 7.36986 13.1657 6.83342 12.001 6.83342C11.6305 6.83342 11.2901 6.88768 10.98 6.97908L11.8391 7.83823C11.8922 7.83505 11.9462 7.83342 12.001 7.83342C12.8362 7.83342 13.4686 8.21364 13.905 8.63191C14.1234 8.84119 14.2863 9.05445 14.3923 9.22013C14.4127 9.25196 14.4306 9.28138 14.446 9.30802C14.4245 9.33823 14.3994 9.37217 14.3704 9.40938C14.259 9.55283 14.1029 9.73025 13.9119 9.91097L14.6192 10.6183ZM12.6719 10.7115C12.4533 10.7887 12.2281 10.8334 12.001 10.8334C11.3513 10.8334 10.7164 10.4676 10.2105 10.021C9.96414 9.80358 9.76561 9.58191 9.63151 9.40938C9.60258 9.37217 9.57742 9.33823 9.55595 9.30802C9.57138 9.28138 9.58924 9.25196 9.60961 9.22013C9.71565 9.05445 9.87855 8.84119 10.0969 8.63191C10.1788 8.55345 10.2676 8.47633 10.3633 8.40281L12.6719 10.7115ZM9.65168 7.69122C9.56385 7.76316 9.48163 7.83651 9.40502 7.90992C9.1234 8.17981 8.91131 8.45613 8.76734 8.68108C8.69549 8.79335 8.63772 8.89732 8.59585 8.98587C8.57514 9.02965 8.55565 9.07529 8.54017 9.12002L8.54001 9.12048C8.53039 9.14831 8.50098 9.23331 8.50098 9.33342C8.50098 9.45827 8.54778 9.56069 8.55994 9.5873L8.56111 9.58986C8.58233 9.63665 8.60823 9.68321 8.63408 9.72595C8.68666 9.81288 8.75754 9.91446 8.84196 10.0231C9.01147 10.2412 9.25228 10.5091 9.54879 10.7708C10.1287 11.2826 10.9938 11.8334 12.001 11.8334C12.5229 11.8334 13.0066 11.6855 13.4323 11.4718L14.0784 12.118C14.2086 12.2481 14.4197 12.2481 14.5498 12.118L14.7855 11.8823C14.9157 11.7521 14.9157 11.541 14.7855 11.4109L9.9236 6.54893C9.79343 6.41876 9.58237 6.41876 9.4522 6.54893L9.2165 6.78464C9.08632 6.91481 9.08632 7.12587 9.2165 7.25604L9.65168 7.69122Z" fill="black" fillOpacity="0.32"></path></svg>