<svg fill="currentColor" viewBox="0 0 48 48" xmlns="http://www.w3.org/2000/svg" width="1em" height="1em"><path d="M22 9a1 1 0 0 0 1 1h2a1 1 0 0 0 1-1V4a1 1 0 0 0-1-1h-2a1 1 0 0 0-1 1v5ZM16 28a8 8 0 1 1 16 0 8 8 0 0 1-16 0Zm8-4a4 4 0 1 0 0 8 4 4 0 0 0 0-8Z"></path><path d="M45.13 28.33a1 1 0 0 0 0-.66C41.99 18.8 33.67 12 24 12c-9.83 0-17.93 6.63-21.13 15.67a1 1 0 0 0 0 .66C6.07 37.37 14.17 44 24 44c9.83 0 17.93-6.63 21.13-15.67ZM41 28s-4.25 12-17 12S7 28 7 28s4.25-12 17-12 17 12 17 12ZM13.37 12.56A1 1 0 0 1 12 12.2L9.5 7.87a1 1 0 0 1 .37-1.37l1.73-1a1 1 0 0 1 1.36.37l2.5 4.33a1 1 0 0 1-.36 1.36l-1.73 1ZM36 12.2a1 1 0 0 1-1.37.36l-1.73-1a1 1 0 0 1-.36-1.36l2.5-4.33a1 1 0 0 1 1.36-.37l1.73 1a1 1 0 0 1 .37 1.37L36 12.2Z"></path></svg>