<svg fill="currentColor" viewBox="0 0 48 48" xmlns="http://www.w3.org/2000/svg" width="1em" height="1em"><path d="m13 2.5 11 16.21L35 2.5c1.17.83 3 3.3 1 6.5 0 0-6.04 9.69-8.84 14.37L31 29.02c3.7-2.77 8.82-1.27 11.58 2.48 2.8 3.8 2.82 9.41-.9 12.35-3.73 2.94-8.94 1.45-11.75-2.35-2.02-2.74-2.6-6.42-1.36-9.36L24 25.5l-4.56 6.64c1.23 2.94.66 6.61-1.37 9.35-2.81 3.81-8.04 5.3-11.77 2.36-3.74-2.94-3.72-8.54-.9-12.34 2.76-3.75 7.88-5.26 11.6-2.49l3.84-5.65A1261.7 1261.7 0 0 0 12 9c-2-3.2-.17-5.67 1-6.5Zm20.2 29.87c-1.52 1.2-2 4.1-.13 6.65 1.87 2.54 4.7 2.82 6.23 1.61 1.53-1.2 2.02-4.1.14-6.65-1.87-2.54-4.7-2.82-6.23-1.61Zm-18.41 0c-1.54-1.22-4.38-.93-6.26 1.61-1.87 2.54-1.4 5.44.14 6.65 1.54 1.22 4.38.93 6.26-1.61s1.4-5.44-.14-6.65Z"></path></svg>