<svg width="17" height="16" viewBox="0 0 17 16" fill="none" xmlns="http://www.w3.org/2000/svg"><path d="M13.2338 5.00002V11.5679L14.3937 10.333C14.4819 10.239 14.6296 10.2344 14.7235 10.3226L15.2094 10.779C15.3034 10.8672 15.308 11.0149 15.2198 11.1088L13.1345 13.3291C12.8335 13.6497 12.325 13.6518 12.0213 13.3338L9.90119 11.1142C9.81218 11.021 9.81557 10.8733 9.90875 10.7843L10.3908 10.3238C10.484 10.2348 10.6317 10.2382 10.7207 10.3314L12.1005 11.7759V5.00002C12.1005 4.20841 11.4588 3.56668 10.6672 3.56668H9.50051C9.37164 3.56668 9.26718 3.46222 9.26718 3.33335V2.66668C9.26718 2.53782 9.37164 2.43335 9.50051 2.43335H10.6672C12.0847 2.43335 13.2338 3.58249 13.2338 5.00002Z" fill="black" fillOpacity="0.32"></path><path d="M6.61407 5.77906L5.23384 4.33407V11C5.23384 11.7916 5.87557 12.4333 6.66718 12.4333H7.83384C7.96271 12.4333 8.06718 12.5378 8.06718 12.6667V13.3334C8.06718 13.4622 7.96271 13.5667 7.83384 13.5667H6.66718C5.24965 13.5667 4.10051 12.4175 4.10051 11V4.54305L2.94113 5.77751C2.8529 5.87145 2.70524 5.87608 2.6113 5.78786L2.12535 5.33146C2.03142 5.24324 2.02679 5.09558 2.11501 5.00164L4.20026 2.78135C4.50132 2.46079 5.00975 2.45865 5.3135 2.77665L7.43361 4.99625C7.52262 5.08944 7.51924 5.23714 7.42605 5.32615L6.94397 5.78663C6.85078 5.87564 6.70308 5.87225 6.61407 5.77906Z" fill="black" fillOpacity="0.32"></path></svg>