<svg width="17" height="16" viewBox="0 0 17 16" fill="none" xmlns="http://www.w3.org/2000/svg"><path d="M2.00098 7.99959C2.00098 7.26321 2.59793 6.66626 3.33431 6.66626C4.07069 6.66626 4.66764 7.26321 4.66764 7.99959C4.66764 8.73597 4.07069 9.33293 3.33431 9.33293C2.59793 9.33293 2.00098 8.73597 2.00098 7.99959ZM7.00098 7.99959C7.00098 7.26321 7.59793 6.66626 8.33431 6.66626C9.07069 6.66626 9.66764 7.26321 9.66764 7.99959C9.66764 8.73597 9.07069 9.33293 8.33431 9.33293C7.59793 9.33293 7.00098 8.73597 7.00098 7.99959ZM12.001 7.99959C12.001 7.26321 12.5979 6.66626 13.3343 6.66626C14.0707 6.66626 14.6676 7.26321 14.6676 7.99959C14.6676 8.73597 14.0707 9.33293 13.3343 9.33293C12.5979 9.33293 12.001 8.73597 12.001 7.99959Z" fill="black"></path></svg>